<?xml version="1.0" encoding="UTF-8" standalone="no"?>
<svg
   viewBox="0 0 16 16"
   version="1.1"
   id="svg4"
   sodipodi:docname="icon-proposal-idea.svg"
   inkscape:version="1.3.2 (091e20e, 2023-11-25)"
   xmlns:inkscape="http://www.inkscape.org/namespaces/inkscape"
   xmlns:sodipodi="http://sodipodi.sourceforge.net/DTD/sodipodi-0.dtd"
   xmlns="http://www.w3.org/2000/svg"
   xmlns:svg="http://www.w3.org/2000/svg">
  <defs
     id="defs4" />
  <sodipodi:namedview
     id="namedview4"
     pagecolor="#ffffff"
     bordercolor="#000000"
     borderopacity="0.25"
     inkscape:showpageshadow="2"
     inkscape:pageopacity="0.0"
     inkscape:pagecheckerboard="0"
     inkscape:deskcolor="#d1d1d1"
     inkscape:zoom="12.038357"
     inkscape:cx="16.239758"
     inkscape:cy="12.750909"
     inkscape:window-width="1536"
     inkscape:window-height="936"
     inkscape:window-x="240"
     inkscape:window-y="55"
     inkscape:window-maximized="0"
     inkscape:current-layer="svg4" />
  <path
     fill="#888"
     d="M0 2v12h12.69V3.81H5.08L3.95 2H0z"
     id="path1" />
  <g
     id="g1"
     transform="matrix(0.53636364,0,0,0.53636364,-9.4318183,2.8545454)">
    <path
       fill="#ffc857"
       d="m 38,0.5 c 0,3 -2.5,4 -2.5,7.5 h -6 C 29.5,4.5 27,3.5 27,0.5 c 0,-3 2.5,-4.5 5.5,-4.5 3,0 5.5,1.5 5.5,4.5 z"
       id="path1-3" />
    <path
       fill="#e8a33d"
       d="m 32.5,-3 c 1.1,0 4.5,0.3 4.5,3.5 0,1.2 -0.5,2 -1,3 -0.6,1 -1.2,2 -1.4,3.5 H 30.4 C 30.2,5.5 29.6,4.4 29,3.5 28.4,2.5 28,1.7 28,0.5 28,-2.7 31.4,-3 32.5,-3 m 0,-1 c -3,0 -5.5,1.5 -5.5,4.5 0,3 2.5,4 2.5,7.5 h 6 C 35.5,4.5 38,3.5 38,0.5 38,-2.5 35.5,-4 32.5,-4 Z"
       id="path2" />
    <path
       fill="#ffc857"
       d="M 33,9 H 32 C 31.5,9 31,8.6 31,8 V 2 c 0,-0.5 0.4,-1 1,-1 h 1 c 0.5,0 1,0.4 1,1 v 6 c 0,0.6 -0.4,1 -1,1 z"
       id="path3" />
    <path
       fill="#e8a33d"
       d="m 33,1.5 c 0.3,0 0.5,0.2 0.5,0.5 v 6 c 0,0.3 -0.2,0.5 -0.5,0.5 H 32 C 31.7,8.5 31.5,8.3 31.5,8 V 2 c 0,-0.3 0.2,-0.5 0.5,-0.5 h 1 M 33,1 h -1 c -0.6,0 -1,0.4 -1,1 v 6 c 0,0.6 0.4,1 1,1 h 1 c 0.6,0 1,-0.4 1,-1 V 2 C 34,1.4 33.6,1 33,1 Z"
       id="path4-9" />
    <path
       fill="#aaaaaa"
       d="m 34.5,12 h -4 c -0.6,0 -1,-0.4 -1,-1 V 8 c 0,-0.6 0.4,-1 1,-1 h 4 c 0.6,0 1,0.4 1,1 v 3 c 0,0.6 -0.4,1 -1,1 z"
       id="path5" />
    <path
       fill="#666666"
       d="m 34.5,8 v 3 h -4 V 8 h 4 m 0,-1 h -4 c -0.6,0 -1,0.4 -1,1 v 3 c 0,0.6 0.4,1 1,1 h 4 c 0.6,0 1,-0.4 1,-1 V 8 c 0,-0.6 -0.4,-1 -1,-1 z"
       id="path6" />
    <path
       fill="#666666"
       d="m 29.5,9 h 6 v 1 h -6 z"
       id="path7" />
  </g>
  <path
     fill="#aaa"
     d="M16 6.08L12.96 14H0l2.53-6.6h4.02l1.71-1.32z"
     id="path4" />
</svg>
